<?xml version="1.0" encoding="UTF-8"?>
<svg version="1.1" xmlns="http://www.w3.org/2000/svg" width="512" height="512">
<path d="M0 0 C168.96 0 337.92 0 512 0 C512 10.56 512 21.12 512 32 C343.04 32 174.08 32 0 32 C0 21.44 0 10.88 0 0 Z " fill="#000000" transform="translate(0,400)"/>
<path d="M0 0 C168.96 0 337.92 0 512 0 C512 10.56 512 21.12 512 32 C343.04 32 174.08 32 0 32 C0 21.44 0 10.88 0 0 Z " fill="#000000" transform="translate(0,240)"/>
<path d="M0 0 C168.96 0 337.92 0 512 0 C512 10.56 512 21.12 512 32 C343.04 32 174.08 32 0 32 C0 21.44 0 10.88 0 0 Z " fill="#000000" transform="translate(0,80)"/>
</svg>
