<?xml version="1.0" encoding="UTF-8"?>
<svg version="1.1" xmlns="http://www.w3.org/2000/svg" width="360" height="360">
<path d="M0 0 C118.8 0 237.6 0 360 0 C360 118.8 360 237.6 360 360 C241.2 360 122.4 360 0 360 C0 241.2 0 122.4 0 0 Z " fill="#FDFDFD" transform="translate(0,0)"/>
<path d="M0 0 C0.80308594 -0.00773437 1.60617188 -0.01546875 2.43359375 -0.0234375 C15.95930798 0.02040598 27.5257206 5.51732375 37.24609375 14.83203125 C45.72147032 23.92433298 51.65945227 34.7217377 51.59765625 47.328125 C51.59443359 48.48828125 51.59121094 49.6484375 51.58789062 50.84375 C51.57951172 52.0503125 51.57113281 53.256875 51.5625 54.5 C51.55798828 55.72203125 51.55347656 56.9440625 51.54882812 58.203125 C51.53704815 61.21879946 51.52059853 64.23437498 51.5 67.25 C52.63018555 67.23952637 53.76037109 67.22905273 54.92480469 67.21826172 C59.12171252 67.18203568 63.31860654 67.15909002 67.515625 67.14013672 C69.33140386 67.13008509 71.14716656 67.11644172 72.96289062 67.09912109 C75.57425935 67.07483594 78.18541387 67.06350852 80.796875 67.0546875 C81.60743347 67.04436493 82.41799194 67.03404236 83.25311279 67.02340698 C90.50275401 67.02196692 90.50275401 67.02196692 93.5 69.25 C95.62783615 72.44175422 95.86028135 73.78443315 96.21435547 77.5078125 C96.32156418 78.59166229 96.42877289 79.67551208 96.53923035 80.79220581 C96.64745621 81.97452789 96.75568207 83.15684998 96.8671875 84.375 C96.98673294 85.60832062 97.10627838 86.84164124 97.22944641 88.11233521 C97.55238959 91.46188813 97.86780294 94.81198478 98.17968369 98.16257477 C98.50628066 101.65305 98.84219549 105.14262866 99.17700195 108.63232422 C99.77769509 114.90878779 100.36992041 121.18601365 100.95759106 127.46370888 C101.43539034 132.56687268 101.91872329 137.66949355 102.40393066 142.7719574 C104.14314736 161.07483114 105.81408795 179.38348608 107.34741211 197.70483398 C107.97630854 205.20841609 108.62855917 212.70906883 109.31884766 220.20729065 C109.70552038 224.41290484 110.08588855 228.61908104 110.46606445 232.82528687 C110.65362068 234.88108778 110.84415689 236.93661925 111.0378418 238.99185181 C111.30903094 241.87282343 111.56960279 244.75458668 111.828125 247.63671875 C111.91124939 248.4904306 111.99437378 249.34414246 112.08001709 250.22372437 C112.59462404 256.1192407 113.12104661 262.37632647 110.125 267.6875 C106.52937719 271.14482962 101.82310618 270.39823333 97.1625061 270.39717102 C96.30184111 270.40084771 95.44117612 270.4045244 94.55443037 270.4083125 C91.65949056 270.41935919 88.76458664 270.42319482 85.86962891 270.42700195 C83.79850653 270.43326573 81.72738527 270.43991246 79.65626526 270.44691467 C74.02199327 270.46432936 68.38772976 270.47487719 62.75343752 270.4831202 C59.23550932 270.48826816 55.71758377 270.49434391 52.19965744 270.50063133 C41.19897669 270.51968261 30.19830267 270.53391527 19.19760859 270.5422433 C6.48725619 270.55202393 -6.22292245 270.57836533 -18.93321359 270.61874419 C-28.75068226 270.64886609 -38.56810099 270.66370834 -48.38561499 270.66702431 C-54.25272362 270.66937879 -60.1196466 270.6783913 -65.98670578 270.70348549 C-71.50410712 270.72670324 -77.02119971 270.7310248 -82.53863716 270.72072411 C-84.56514702 270.72022714 -86.59167175 270.72659465 -88.61813545 270.74028015 C-91.38197657 270.75790331 -94.14469805 270.75094035 -96.90853882 270.73774719 C-98.1151081 270.75420106 -98.1151081 270.75420106 -99.34605253 270.77098733 C-103.10986102 270.72752512 -105.27310935 270.39534928 -108.47446632 268.3445158 C-110.57950731 266.16778497 -111.47261527 265.22428225 -111.55743408 262.20663452 C-111.50821808 260.94685287 -111.50821808 260.94685287 -111.45800781 259.66162109 C-111.42141052 258.71131012 -111.38481323 257.76099915 -111.34710693 256.78189087 C-111.2995929 255.74785126 -111.25207886 254.71381165 -111.203125 253.6484375 C-111.15544983 252.57226166 -111.10777466 251.49608582 -111.05865479 250.38729858 C-110.553263 239.92538432 -109.61861067 229.52212629 -108.57342529 219.10229492 C-108.00043591 213.38472809 -107.45009476 207.66497065 -106.8984375 201.9453125 C-106.78315704 200.75411804 -106.66787659 199.56292358 -106.54910278 198.33563232 C-105.21788373 184.48294158 -104.04937712 170.61669231 -102.875 156.75 C-100.01163824 123.07086411 -100.01163824 123.07086411 -98.171875 106.5078125 C-97.65346478 101.84062226 -97.22618887 97.1711637 -96.828125 92.4921875 C-96.65144287 90.54965088 -96.65144287 90.54965088 -96.47119141 88.56787109 C-96.24750241 86.10098213 -96.04028017 83.63251958 -95.85302734 81.16259766 C-95.74941895 80.06737793 -95.64581055 78.9721582 -95.5390625 77.84375 C-95.45865723 76.88146484 -95.37825195 75.91917969 -95.29541016 74.92773438 C-94.16312364 71.11591162 -92.70791978 69.59369407 -89.5 67.25 C-86.54803506 66.59575612 -83.71056112 66.66522973 -80.69921875 66.76171875 C-79.4446563 66.77233086 -79.4446563 66.77233086 -78.16474915 66.78315735 C-75.50473948 66.81105015 -72.84686861 66.87377519 -70.1875 66.9375 C-68.37958779 66.96258966 -66.57164243 66.98540167 -64.76367188 67.00585938 C-60.34162927 67.06085958 -55.92117669 67.14709357 -51.5 67.25 C-51.52618408 66.63705078 -51.55236816 66.02410156 -51.5793457 65.39257812 C-52.29917092 45.90080454 -50.62550756 30.46555654 -37.5 15.25 C-26.92240637 4.87452599 -14.7022894 -0.14159508 0 0 Z " fill="#FCFCFC" transform="translate(179.5,44.75)"/>
<path d="M0 0 C0.80308594 -0.00773437 1.60617188 -0.01546875 2.43359375 -0.0234375 C15.95930798 0.02040598 27.5257206 5.51732375 37.24609375 14.83203125 C45.72147032 23.92433298 51.65945227 34.7217377 51.59765625 47.328125 C51.59443359 48.48828125 51.59121094 49.6484375 51.58789062 50.84375 C51.57951172 52.0503125 51.57113281 53.256875 51.5625 54.5 C51.55798828 55.72203125 51.55347656 56.9440625 51.54882812 58.203125 C51.53704815 61.21879946 51.52059853 64.23437498 51.5 67.25 C52.63018555 67.23952637 53.76037109 67.22905273 54.92480469 67.21826172 C59.12171252 67.18203568 63.31860654 67.15909002 67.515625 67.14013672 C69.33140386 67.13008509 71.14716656 67.11644172 72.96289062 67.09912109 C75.57425935 67.07483594 78.18541387 67.06350852 80.796875 67.0546875 C81.60743347 67.04436493 82.41799194 67.03404236 83.25311279 67.02340698 C90.50275401 67.02196692 90.50275401 67.02196692 93.5 69.25 C95.62783615 72.44175422 95.86028135 73.78443315 96.21435547 77.5078125 C96.32156418 78.59166229 96.42877289 79.67551208 96.53923035 80.79220581 C96.64745621 81.97452789 96.75568207 83.15684998 96.8671875 84.375 C96.98673294 85.60832062 97.10627838 86.84164124 97.22944641 88.11233521 C97.55238959 91.46188813 97.86780294 94.81198478 98.17968369 98.16257477 C98.50628066 101.65305 98.84219549 105.14262866 99.17700195 108.63232422 C99.77769509 114.90878779 100.36992041 121.18601365 100.95759106 127.46370888 C101.43539034 132.56687268 101.91872329 137.66949355 102.40393066 142.7719574 C104.14314736 161.07483114 105.81408795 179.38348608 107.34741211 197.70483398 C107.97630854 205.20841609 108.62855917 212.70906883 109.31884766 220.20729065 C109.70552038 224.41290484 110.08588855 228.61908104 110.46606445 232.82528687 C110.65362068 234.88108778 110.84415689 236.93661925 111.0378418 238.99185181 C111.30903094 241.87282343 111.56960279 244.75458668 111.828125 247.63671875 C111.91124939 248.4904306 111.99437378 249.34414246 112.08001709 250.22372437 C112.59462404 256.1192407 113.12104661 262.37632647 110.125 267.6875 C106.52937719 271.14482962 101.82310618 270.39823333 97.1625061 270.39717102 C96.30184111 270.40084771 95.44117612 270.4045244 94.55443037 270.4083125 C91.65949056 270.41935919 88.76458664 270.42319482 85.86962891 270.42700195 C83.79850653 270.43326573 81.72738527 270.43991246 79.65626526 270.44691467 C74.02199327 270.46432936 68.38772976 270.47487719 62.75343752 270.4831202 C59.23550932 270.48826816 55.71758377 270.49434391 52.19965744 270.50063133 C41.19897669 270.51968261 30.19830267 270.53391527 19.19760859 270.5422433 C6.48725619 270.55202393 -6.22292245 270.57836533 -18.93321359 270.61874419 C-28.75068226 270.64886609 -38.56810099 270.66370834 -48.38561499 270.66702431 C-54.25272362 270.66937879 -60.1196466 270.6783913 -65.98670578 270.70348549 C-71.50410712 270.72670324 -77.02119971 270.7310248 -82.53863716 270.72072411 C-84.56514702 270.72022714 -86.59167175 270.72659465 -88.61813545 270.74028015 C-91.38197657 270.75790331 -94.14469805 270.75094035 -96.90853882 270.73774719 C-98.1151081 270.75420106 -98.1151081 270.75420106 -99.34605253 270.77098733 C-103.10986102 270.72752512 -105.27310935 270.39534928 -108.47446632 268.3445158 C-110.57950731 266.16778497 -111.47261527 265.22428225 -111.55743408 262.20663452 C-111.50821808 260.94685287 -111.50821808 260.94685287 -111.45800781 259.66162109 C-111.42141052 258.71131012 -111.38481323 257.76099915 -111.34710693 256.78189087 C-111.2995929 255.74785126 -111.25207886 254.71381165 -111.203125 253.6484375 C-111.15544983 252.57226166 -111.10777466 251.49608582 -111.05865479 250.38729858 C-110.553263 239.92538432 -109.61861067 229.52212629 -108.57342529 219.10229492 C-108.00043591 213.38472809 -107.45009476 207.66497065 -106.8984375 201.9453125 C-106.78315704 200.75411804 -106.66787659 199.56292358 -106.54910278 198.33563232 C-105.21788373 184.48294158 -104.04937712 170.61669231 -102.875 156.75 C-100.01163824 123.07086411 -100.01163824 123.07086411 -98.171875 106.5078125 C-97.65346478 101.84062226 -97.22618887 97.1711637 -96.828125 92.4921875 C-96.65144287 90.54965088 -96.65144287 90.54965088 -96.47119141 88.56787109 C-96.24750241 86.10098213 -96.04028017 83.63251958 -95.85302734 81.16259766 C-95.74941895 80.06737793 -95.64581055 78.9721582 -95.5390625 77.84375 C-95.45865723 76.88146484 -95.37825195 75.91917969 -95.29541016 74.92773438 C-94.16312364 71.11591162 -92.70791978 69.59369407 -89.5 67.25 C-86.54803506 66.59575612 -83.71056112 66.66522973 -80.69921875 66.76171875 C-79.4446563 66.77233086 -79.4446563 66.77233086 -78.16474915 66.78315735 C-75.50473948 66.81105015 -72.84686861 66.87377519 -70.1875 66.9375 C-68.37958779 66.96258966 -66.57164243 66.98540167 -64.76367188 67.00585938 C-60.34162927 67.06085958 -55.92117669 67.14709357 -51.5 67.25 C-51.52618408 66.63705078 -51.55236816 66.02410156 -51.5793457 65.39257812 C-52.29917092 45.90080454 -50.62550756 30.46555654 -37.5 15.25 C-26.92240637 4.87452599 -14.7022894 -0.14159508 0 0 Z M-76.5 86.25 C-77.9120709 89.07414181 -77.8875189 91.67967959 -78.1484375 94.828125 C-78.2338253 95.83209068 -78.2338253 95.83209068 -78.32093811 96.8563385 C-78.44414275 98.30753669 -78.56559723 99.75888428 -78.68551636 101.21035767 C-79.00897462 105.1188941 -79.34636423 109.02622506 -79.68359375 112.93359375 C-79.75197952 113.72843674 -79.8203653 114.52327972 -79.89082336 115.34220886 C-80.50471992 122.42283353 -81.20908584 129.49277261 -81.9375 136.5625 C-83.89378843 155.74085907 -85.55833039 174.94531746 -87.22991943 194.15020752 C-87.50871721 197.35004995 -87.78870715 200.54978658 -88.06884766 203.74951172 C-88.54248634 209.16451247 -89.01237238 214.5798276 -89.47952271 219.99539185 C-89.65849054 222.06617266 -89.83838753 224.1368734 -90.01925659 226.20748901 C-90.27098248 229.09381084 -90.51881238 231.98044193 -90.765625 234.8671875 C-90.8404158 235.71623154 -90.9152066 236.56527557 -90.99226379 237.44004822 C-91.05959213 238.23697586 -91.12692047 239.0339035 -91.19628906 239.85498047 C-91.28478119 240.88049515 -91.28478119 240.88049515 -91.37506104 241.92672729 C-91.5419612 245.03027943 -91.5 248.1419634 -91.5 251.25 C-31.11 251.25 29.28 251.25 91.5 251.25 C91.53538533 238.80429984 91.53538533 238.80429984 90.79736328 226.46679688 C90.7225473 225.60422272 90.64773132 224.74164856 90.57064819 223.85293579 C90.32668416 221.05762618 90.07359946 218.26322883 89.8203125 215.46875 C89.6451676 213.48267588 89.47060909 211.49654997 89.29660034 209.51037598 C88.83951546 204.31071572 88.37467988 199.11177785 87.90808105 193.91296387 C87.44061303 188.68977975 86.98031969 183.46596439 86.51953125 178.2421875 C85.83747143 170.51721969 85.15126089 162.79263641 84.46142578 155.06835938 C83.68937471 146.41984773 82.93280137 137.77004208 82.18386269 129.11949921 C81.51645759 121.41377897 80.83490864 113.70949267 80.12231445 106.0078125 C79.99582141 104.63360015 79.87089683 103.25924278 79.74731445 101.88476562 C79.56282036 99.83430635 79.37374177 97.7843167 79.18359375 95.734375 C79.07587646 94.55584961 78.96815918 93.37732422 78.85717773 92.16308594 C78.5905413 89.19091994 78.5905413 89.19091994 77.5 86.25 C68.92 86.25 60.34 86.25 51.5 86.25 C51.29017506 93.3546974 51.29017506 93.3546974 51.11206055 100.46020508 C51.06239136 101.78894653 51.06239136 101.78894653 51.01171875 103.14453125 C50.98553467 104.05050049 50.95935059 104.95646973 50.93237305 105.88989258 C50.42432419 108.66307625 49.7151914 109.55921022 47.5 111.25 C45.37890625 111.90234375 45.37890625 111.90234375 43.0625 112.1875 C42.30066406 112.29964844 41.53882813 112.41179687 40.75390625 112.52734375 C38.5 112.25 38.5 112.25 34.5 108.25 C33.51 97.36 33.51 97.36 32.5 86.25 C11.05 86.25 -10.4 86.25 -32.5 86.25 C-32.83 93.18 -33.16 100.11 -33.5 107.25 C-38.5 112.25 -38.5 112.25 -42.0625 112.8125 C-45.98101711 112.17128811 -47.12558226 111.35500781 -49.5 108.25 C-50.67469444 105.90061112 -50.70034889 104.29926795 -50.81640625 101.6796875 C-50.87356812 100.46901611 -50.87356812 100.46901611 -50.93188477 99.23388672 C-50.97498779 98.2079541 -51.01809082 97.18202148 -51.0625 96.125 C-51.206875 92.86625 -51.35125 89.6075 -51.5 86.25 C-59.75 86.25 -68 86.25 -76.5 86.25 Z " fill="#010101" transform="translate(179.5,44.75)"/>
<path d="M0 0 C7.74661209 5.60246053 10.68971595 11.04404839 14.625 19.8984375 C14.625 27.8184375 14.625 35.7384375 14.625 43.8984375 C-6.825 43.8984375 -28.275 43.8984375 -50.375 43.8984375 C-50.375 15.37163528 -50.375 15.37163528 -40.26171875 4.66015625 C-29.01875233 -5.96143724 -13.57074699 -7.85480736 0 0 Z " fill="#F9F9F9" transform="translate(197.375,68.1015625)"/>
</svg>
