<?xml version="1.0" encoding="UTF-8"?>
<svg version="1.1" xmlns="http://www.w3.org/2000/svg" width="105" height="70">
<path d="M0 0 C34.65 0 69.3 0 105 0 C105 23.1 105 46.2 105 70 C70.35 70 35.7 70 0 70 C0 46.9 0 23.8 0 0 Z " fill="#FEFDFD" transform="translate(0,0)"/>
<path d="M0 0 C3.7076114 4.26289883 6.233528 8.86004465 8.875 13.8125 C13.73553875 22.80386764 18.82745879 31.64057272 24.05224609 40.42504883 C28.04123973 47.18254036 31.47021729 53.94043458 35 61 C12.23 61 -10.54 61 -34 61 C-29.64756377 52.29512753 -25.33199213 43.88669481 -20.375 35.5625 C-13.43413006 23.79114701 -6.68791631 11.91652861 0 0 Z " fill="#FDDC58" transform="translate(52,9)"/>
<path d="M0 0 C3.7076114 4.26289883 6.233528 8.86004465 8.875 13.8125 C13.73553875 22.80386764 18.82745879 31.64057272 24.05224609 40.42504883 C28.01605762 47.13988101 31.59656755 53.98490334 35 61 C32.69116211 60.79516602 32.69116211 60.79516602 30 60 C28.36938477 57.97241211 28.36938477 57.97241211 26.94140625 55.27734375 C26.39709961 54.27453369 25.85279297 53.27172363 25.29199219 52.23852539 C24.72125977 51.14918701 24.15052734 50.05984863 23.5625 48.9375 C22.33147829 46.66295116 21.09834486 44.38954415 19.86328125 42.1171875 C19.54861908 41.53334793 19.23395691 40.94950836 18.90975952 40.34797668 C15.48865848 34.00885215 11.88373098 27.78218154 8.25 21.5625 C7.65388916 20.53310303 7.05777832 19.50370605 6.44360352 18.44311523 C5.61300415 17.01914429 5.61300415 17.01914429 4.765625 15.56640625 C4.27868164 14.73052979 3.79173828 13.89465332 3.29003906 13.03344727 C2.03126955 10.88574359 2.03126955 10.88574359 0 9 C-0.31525635 9.56058105 -0.6305127 10.12116211 -0.95532227 10.69873047 C-7.64297578 22.58176109 -14.37718489 34.43689812 -21.1875 46.25 C-21.83468994 47.37390137 -22.48187988 48.49780273 -23.14868164 49.65576172 C-23.75317139 50.7026416 -24.35766113 51.74952148 -24.98046875 52.828125 C-25.51567139 53.7552832 -26.05087402 54.68244141 -26.60229492 55.63769531 C-27.67981469 57.45884488 -28.82623098 59.23934646 -30 61 C-31.32 60.67 -32.64 60.34 -34 60 C-26.04773513 45.55478651 -18.02177619 31.16903881 -9.65771484 16.95703125 C-6.35696755 11.3476346 -3.12859748 5.70736283 0 0 Z " fill="#F97724" transform="translate(52,9)"/>
</svg>
