<?xml version="1.0" encoding="UTF-8"?>
<svg version="1.1" xmlns="http://www.w3.org/2000/svg" width="400" height="400">
<path d="M0 0 C132 0 264 0 400 0 C400 132 400 264 400 400 C268 400 136 400 0 400 C0 268 0 136 0 0 Z " fill="#F2F4F3" transform="translate(0,0)"/>
<path d="M0 0 C0.70296644 -0.00694553 1.40593288 -0.01389106 2.13020134 -0.02104706 C4.48572389 -0.03934363 6.84024228 -0.02904616 9.19580078 -0.01878357 C10.88446813 -0.0258407 12.57312914 -0.03458485 14.26177979 -0.04489136 C18.84854549 -0.06741713 23.43496666 -0.06443842 28.02176666 -0.05556989 C31.84901975 -0.05046483 35.67620782 -0.05774854 39.50345421 -0.06504196 C48.53051802 -0.08205074 57.55741282 -0.07846486 66.58447266 -0.06175232 C75.90273239 -0.04482398 85.22052392 -0.06067306 94.53873253 -0.0929752 C102.53544778 -0.11964787 110.53201708 -0.12695358 118.52877235 -0.11846012 C123.30653906 -0.11352482 128.0840239 -0.11577912 132.86175537 -0.13624763 C137.35334341 -0.15456877 141.84425632 -0.14869021 146.3358078 -0.12404823 C147.98538626 -0.1190292 149.63501585 -0.12255839 151.28455353 -0.13519669 C153.53455942 -0.15107362 155.78232732 -0.13623153 158.03222656 -0.11352539 C159.29173126 -0.11293908 160.55123596 -0.11235277 161.84890747 -0.1117487 C165.01611328 0.5146637 165.01611328 0.5146637 167.45651245 2.88986301 C169.01611328 5.5146637 169.01611328 5.5146637 168.95361328 8.1396637 C167.90677135 10.79166325 167.30653279 11.82990633 165.01611328 13.5146637 C161.9719553 13.89498043 161.9719553 13.89498043 158.15248108 13.90234375 C157.09931305 13.91042206 157.09931305 13.91042206 156.02486891 13.91866356 C153.66638598 13.9329994 151.30845988 13.92582586 148.94995117 13.91871643 C147.2614344 13.92441709 145.57292148 13.93138016 143.88441467 13.93951416 C139.29350575 13.95749468 134.70278744 13.956268 130.11185384 13.95057178 C126.28217543 13.94748689 122.45253401 13.95356457 118.62286085 13.95961052 C109.58960721 13.97367029 100.55644812 13.97208248 91.52319336 13.96070862 C82.19763464 13.94922632 72.87236346 13.96330162 63.54684263 13.99010509 C55.54591596 14.01224216 47.54507968 14.01890397 39.54412454 14.01302868 C34.76302517 14.00965306 29.98211014 14.01211412 25.20103645 14.02927971 C20.70544705 14.04471503 16.21028447 14.04083149 11.71471214 14.02197456 C10.06351937 14.01827915 8.41229522 14.02142482 6.76113129 14.03186035 C4.50916787 14.04500777 2.25863052 14.0335804 0.00672913 14.01586914 C-1.25407439 14.01565986 -2.51487791 14.01545057 -3.8138876 14.01523495 C-7.55418125 13.42460908 -8.73775876 12.50829312 -10.98388672 9.5146637 C-11.48388672 7.0146637 -11.48388672 7.0146637 -10.98388672 4.5146637 C-7.75407607 0.21282509 -5.23706453 0.01167128 0 0 Z " fill="#393939" transform="translate(120.98388671875,142.48533630371094)"/>
<path d="M0 0 C0.70211202 -0.00453111 1.40422403 -0.00906223 2.12761217 -0.01373065 C4.48598453 -0.02641555 6.84412716 -0.02475168 9.20252991 -0.02310181 C10.89104511 -0.02908447 12.57955757 -0.0358894 14.26806641 -0.04345703 C18.85893459 -0.06114985 23.44972826 -0.06581376 28.04062724 -0.0670886 C31.87029961 -0.06898587 35.69995456 -0.07634132 39.52962023 -0.08343279 C48.56285168 -0.09972642 57.59604326 -0.10460082 66.62928772 -0.10317993 C75.95483454 -0.10197787 85.28015015 -0.12309029 94.60563844 -0.15466726 C102.60655558 -0.18079601 110.60739704 -0.19154868 118.60835654 -0.19026911 C123.38946852 -0.18975852 128.17037505 -0.1954951 132.95144463 -0.21662521 C137.44701562 -0.23595073 141.94218397 -0.2361713 146.43776894 -0.22159195 C148.08896852 -0.21949573 149.74019292 -0.22425293 151.39134979 -0.23631287 C153.64329434 -0.25169739 155.89383864 -0.24250416 158.14575195 -0.22705078 C160.03695723 -0.22868508 160.03695723 -0.22868508 161.96636868 -0.2303524 C165.1363678 0.26742554 165.1363678 0.26742554 167.57718754 2.10692406 C169.1363678 4.26742554 169.1363678 4.26742554 169.0738678 7.32992554 C168.08985186 10.41317549 167.71631917 11.4176114 165.1363678 13.26742554 C162.09220982 13.65053558 162.09220982 13.65053558 158.2727356 13.66183472 C157.57062358 13.66792582 156.86851156 13.67401692 156.14512342 13.68029261 C153.78665425 13.69697455 151.42872191 13.6921396 149.07020569 13.68734741 C147.38168779 13.69468475 145.69317492 13.70326999 144.00466919 13.7130127 C139.41377135 13.73527263 134.82305275 13.73815716 130.23210835 13.73626518 C126.40242773 13.73614569 122.57278537 13.74470111 118.74311537 13.7530427 C109.70986703 13.77229282 100.67671111 13.7751547 91.64344788 13.7684021 C82.31783912 13.76175937 72.99262571 13.78463125 63.66709715 13.82171583 C55.66616787 13.85238096 47.66536596 13.86377635 39.66437906 13.85987902 C34.88322867 13.85780825 30.10238585 13.8633411 25.32129097 13.88777161 C20.82563568 13.90998379 16.33062451 13.90820742 11.83496666 13.88784409 C10.18376799 13.88442421 8.53252642 13.88956511 6.8813858 13.90382767 C4.62916123 13.92194197 2.37914018 13.90933341 0.12698364 13.8888855 C-1.76422163 13.88995426 -1.76422163 13.88995426 -3.69363308 13.89104462 C-6.8636322 13.26742554 -6.8636322 13.26742554 -9.30445194 10.92780304 C-10.8636322 8.26742554 -10.8636322 8.26742554 -10.8011322 5.07992554 C-8.94995438 -0.47360793 -5.15454994 0.01370682 0 0 Z " fill="#363636" transform="translate(120.86363220214844,243.73257446289063)"/>
<path d="M0 0 C0.70619557 -0.00467997 1.41239114 -0.00935994 2.13998657 -0.01418173 C4.51230164 -0.02617185 6.8840433 -0.01665915 9.25636292 -0.00723267 C10.95473061 -0.01129663 12.65309567 -0.01663753 14.35145569 -0.02316284 C18.96923361 -0.03686413 23.58681094 -0.03152595 28.20459247 -0.02202559 C33.03273236 -0.0144423 37.86085481 -0.021471 42.68899536 -0.02618408 C50.79888499 -0.03164604 58.90869274 -0.02443902 67.01856995 -0.01016235 C76.39861857 0.00615951 85.77847153 0.0008808 95.15851539 -0.01564157 C103.20614722 -0.02925045 111.2537201 -0.03117886 119.30135971 -0.02332556 C124.11036738 -0.01864505 128.91928306 -0.01803447 133.72828484 -0.02793503 C138.25008436 -0.03659352 142.77163141 -0.03060326 147.29340363 -0.01325226 C148.95426832 -0.0092812 150.61515422 -0.01043204 152.27601051 -0.01704025 C154.54090312 -0.02522174 156.80498355 -0.01497606 159.06982422 0 C160.97209101 0.00169662 160.97209101 0.00169662 162.91278744 0.00342751 C166.28615103 0.4032006 167.6637451 1.07814533 170.09840393 3.38095093 C169.78590393 6.75595093 169.78590393 6.75595093 169.09840393 10.38095093 C165.40996946 12.83990724 163.59319097 12.63674786 159.19007874 12.64837646 C158.12972703 12.65517313 158.12972703 12.65517313 157.04795408 12.66210711 C154.67342867 12.67479238 152.2991314 12.67312813 149.92457581 12.67147827 C148.22458602 12.67746085 146.52459895 12.68426577 144.82461548 12.6918335 C140.20282379 12.70952577 135.58110611 12.71419016 130.95928383 12.71546507 C127.10466396 12.71736212 123.25006142 12.7247172 119.39544821 12.73180926 C110.30472533 12.74810221 101.21404207 12.75297729 92.12330627 12.7515564 C82.73525616 12.75035393 73.34743557 12.77147455 63.95944357 12.80304372 C55.90673789 12.82916104 47.85410739 12.83992565 39.80135965 12.83864558 C34.98842207 12.83813471 30.17568849 12.8438868 25.36279297 12.86500168 C20.83849868 12.88430835 16.31460463 12.88456083 11.79029655 12.86996841 C10.12738908 12.86786993 8.46445704 12.8726427 6.80159187 12.88468933 C4.53616117 12.90004183 2.272128 12.89090215 0.00672913 12.87542725 C-1.89692036 12.87706155 -1.89692036 12.87706155 -3.8390274 12.87872887 C-6.90159607 12.38095093 -6.90159607 12.38095093 -8.80992889 10.51020241 C-10.16264769 7.87178058 -10.35193309 6.30814159 -9.90159607 3.38095093 C-7.34118983 -0.4371575 -4.32550359 0.00385903 0 0 Z " fill="#313131" transform="translate(119.90159606933594,193.61904907226563)"/>
<path d="M0 0 C0.97815916 -0.00339833 0.97815916 -0.00339833 1.97607911 -0.00686532 C4.1771144 -0.01323226 6.37808855 -0.01237424 8.57913208 -0.0115509 C10.15074748 -0.01454075 11.72236214 -0.01794287 13.29397583 -0.02172852 C17.57497716 -0.03059119 21.85595852 -0.0329076 26.13696814 -0.0335443 C29.70566907 -0.03449165 33.2743653 -0.03816798 36.84306443 -0.0417164 C45.26062324 -0.04986981 53.67817134 -0.05229985 62.09573364 -0.05158997 C70.78953056 -0.05098914 79.48326544 -0.06153979 88.17704666 -0.07733363 C95.6309828 -0.09039437 103.08489863 -0.09577447 110.53884614 -0.09513456 C114.99516675 -0.09487911 119.45143229 -0.09775592 123.90774155 -0.10831261 C128.09868029 -0.11796882 132.28951102 -0.11808988 136.48045349 -0.11079597 C138.0208006 -0.10974699 139.56115434 -0.11213152 141.10149002 -0.11815643 C143.20027544 -0.12583541 145.29868405 -0.12125909 147.39746094 -0.11352539 C148.57329176 -0.11407016 149.74912258 -0.11461493 150.96058464 -0.1151762 C153.82571411 0.13371277 153.82571411 0.13371277 156.82571411 2.13371277 C156.82571411 2.79371277 156.82571411 3.45371277 156.82571411 4.13371277 C157.81571411 4.13371277 158.80571411 4.13371277 159.82571411 4.13371277 C159.82571411 4.79371277 159.82571411 5.45371277 159.82571411 6.13371277 C103.06571411 6.13371277 46.30571411 6.13371277 -12.17428589 6.13371277 C-12.17428589 5.47371277 -12.17428589 4.81371277 -12.17428589 4.13371277 C-10.53796697 3.08479038 -8.86942726 2.08464573 -7.17428589 1.13371277 C-5.34671478 -0.69385834 -2.45310915 0.00349852 0 0 Z " fill="#3D3D3D" transform="translate(126.17428588867188,250.8662872314453)"/>
<path d="M0 0 C1.32 0 2.64 0 4 0 C4 1.32 4 2.64 4 4 C4.66 4.33 5.32 4.66 6 5 C6.25 10.625 6.25 10.625 4 14 C1.69 13.67 -0.62 13.34 -3 13 C-2.505 12.443125 -2.01 11.88625 -1.5 11.3125 C0.2666573 8.58890332 0.33531397 7.18548267 0 4 C-0.33 3.34 -0.66 2.68 -1 2 C-0.67 1.34 -0.34 0.68 0 0 Z " fill="#ECEDED" transform="translate(289,193)"/>
<path d="M0 0 C1.65 0.33 3.3 0.66 5 1 C3.55746343 4.36591866 1.66735273 6.51047079 -1 9 C-2 8 -2 8 -2.1875 5.625 C-2 3 -2 3 0 0 Z " fill="#393A3A" transform="translate(112,144)"/>
<path d="M0 0 C2 1 2 1 3 3 C2.67 3.66 2.34 4.32 2 5 C2.66 5.33 3.32 5.66 4 6 C2.02 6.99 2.02 6.99 0 8 C-1.51643855 6.48356145 -1.69212633 5.09354099 -2 3 C-1.34 2.01 -0.68 1.02 0 0 Z M3 1 C5 2 5 2 5 2 Z " fill="#3D3E3E" transform="translate(112,245)"/>
<path d="M0 0 C0.99 0.33 1.98 0.66 3 1 C3.103125 1.763125 3.20625 2.52625 3.3125 3.3125 C4.04364039 6.17059424 4.76951913 7.15742885 7 9 C4.625 8.6875 4.625 8.6875 2 8 C-0.1519437 4.77208445 -0.20086443 3.71599191 0 0 Z " fill="#3B3C3C" transform="translate(110,197)"/>
<path d="M0 0 C2.0625 0.4375 2.0625 0.4375 4 1 C3.6875 2.9375 3.6875 2.9375 3 5 C2.01 5.33 1.02 5.66 0 6 C-0.38218767 4.34385343 -0.71395102 2.67542976 -1 1 C-0.67 0.67 -0.34 0.34 0 0 Z " fill="#E9EBEA" transform="translate(289,152)"/>
</svg>
