<?xml version="1.0" encoding="UTF-8"?>
<svg version="1.1" xmlns="http://www.w3.org/2000/svg" width="105" height="70">
<path d="M0 0 C34.65 0 69.3 0 105 0 C105 23.1 105 46.2 105 70 C70.35 70 35.7 70 0 70 C0 46.9 0 23.8 0 0 Z " fill="#F7F7F7" transform="translate(0,0)"/>
<path d="M0 0 C34.65 0 69.3 0 105 0 C105 23.1 105 46.2 105 70 C97.41 70 89.82 70 82 70 C83.11375 68.06125 84.2275 66.1225 85.375 64.125 C88.46012081 58.51964955 90.40746163 53.38864092 91 47 C91.12181641 45.93072266 91.12181641 45.93072266 91.24609375 44.83984375 C91.83380595 35.02683099 88.27882838 25.3124794 81.91015625 17.9296875 C74.87751588 10.82513874 66.11647791 5.86097684 56 5 C55.3709375 4.93683594 54.741875 4.87367188 54.09375 4.80859375 C44.18543132 4.25214832 34.47114823 7.5476319 26.99609375 14.03515625 C18.91405033 21.99067062 14.06703025 30.97932627 13.5625 42.5625 C14.14586156 52.85600883 17.8078235 61.2309908 23 70 C15.41 70 7.82 70 0 70 C0 46.9 0 23.8 0 0 Z " fill="#FCFCFC" transform="translate(0,0)"/>
<path d="M0 0 C4.94406165 2.65971212 7.90205372 6.07042667 10.11328125 11.15625 C11.74426029 17.95199602 10.9696645 22.34158628 7.4296875 28.26171875 C4.37719693 32.19722405 0.53590036 33.7237103 -4.13671875 35.28125 C-10.89644188 35.8012287 -15.5248098 34.29954328 -20.88671875 30.15625 C-24.62445673 25.38025147 -26.55475413 20.21178587 -26.07421875 14.09375 C-24.51842567 7.76685814 -21.45174423 3.96088303 -16.13671875 0.28125 C-11.04065361 -1.41743838 -5.14382507 -1.73028119 0 0 Z " fill="#020202" transform="translate(60.13671875,19.71875)"/>
<path d="M0 0 C8.77559954 6.79591884 14.62299217 15.79572469 16.3203125 26.796875 C17.54293187 38.22943856 13.81463607 48.52204762 7.3203125 57.796875 C5.59072354 59.52646396 3.24643516 58.99597989 0.88598633 59.05322266 C-0.27579636 59.08219635 -1.43757904 59.11117004 -2.63456726 59.14102173 C-7.26584023 59.22538638 -11.89708023 59.2983726 -16.52888012 59.34531593 C-20.04520472 59.3810499 -23.55923568 59.43425246 -27.07446289 59.53076172 C-31.12416611 59.64161278 -35.17155492 59.67861225 -39.22265625 59.7109375 C-40.47910446 59.75425201 -41.73555267 59.79756653 -43.03007507 59.8421936 C-51.5546283 59.82374858 -51.5546283 59.82374858 -54.78164673 56.87835693 C-56.36197163 54.56798274 -57.56797307 52.36237497 -58.6796875 49.796875 C-59.16183968 48.73286972 -59.16183968 48.73286972 -59.6537323 47.64736938 C-63.95577896 37.19058297 -63.51033985 27.51846501 -60.0078125 16.94921875 C-55.99411985 7.42260119 -48.03456646 -0.08741163 -38.7109375 -4.390625 C-25.67491023 -9.60503591 -11.74753701 -7.63023304 0 0 Z M-53.4921875 9.984375 C-59.42346346 18.1088437 -62.08399987 27.81374353 -60.6796875 37.796875 C-59.15286435 43.8594801 -57.2642057 49.62237366 -53.6796875 54.796875 C-53.0196875 54.796875 -52.3596875 54.796875 -51.6796875 54.796875 C-50.9165625 54.013125 -50.1534375 53.229375 -49.3671875 52.421875 C-44.53355813 47.70065562 -39.91119308 47.48010687 -33.37890625 47.4609375 C-32.58370071 47.4542807 -31.78849518 47.4476239 -30.9691925 47.44076538 C-29.29076439 47.43066781 -27.61229635 47.42594746 -25.93383789 47.42626953 C-23.38554547 47.42190643 -20.83900089 47.38558663 -18.29101562 47.34765625 C-16.6536517 47.34178516 -15.01627962 47.33781772 -13.37890625 47.3359375 C-12.25037483 47.31438095 -12.25037483 47.31438095 -11.0990448 47.29238892 C-5.61864958 47.33896505 -1.20525404 48.61758501 3.3203125 51.796875 C3.9803125 52.786875 4.6403125 53.776875 5.3203125 54.796875 C5.9803125 54.796875 6.6403125 54.796875 7.3203125 54.796875 C13.43992181 43.39851873 16.55025265 33.54403334 12.7578125 20.734375 C9.31126288 11.33469421 2.9858426 3.85722994 -5.6796875 -1.203125 C-23.89153548 -8.92659378 -40.58528171 -5.11014194 -53.4921875 9.984375 Z " fill="#010101" transform="translate(75.6796875,11.203125)"/>
<path d="M0 0 C8.75881242 6.78291871 14.6512446 15.80189021 16.3203125 26.796875 C16.89158498 33.35460696 15.81102539 39.4214154 14.3203125 45.796875 C12.8353125 46.291875 12.8353125 46.291875 11.3203125 46.796875 C11.4646875 46.19101562 11.6090625 45.58515625 11.7578125 44.9609375 C14.37068711 33.16671184 14.11774232 22.99195405 7.84765625 12.28125 C1.8780262 3.98304085 -5.97214951 -1.52322517 -15.96484375 -3.765625 C-26.67762211 -5.49200079 -36.57043253 -3.49632628 -45.4921875 2.921875 C-52.51110245 8.89623274 -56.98223279 15.76265089 -58.9765625 24.765625 C-59.6796875 26.796875 -59.6796875 26.796875 -62.6796875 28.796875 C-60.74039878 16.34460008 -55.88037752 6.81836068 -45.4453125 -0.84375 C-30.73160802 -9.50500866 -14.44328935 -9.38117186 0 0 Z " fill="#0A0A0A" transform="translate(75.6796875,11.203125)"/>
<path d="M0 0 C0.33 0.66 0.66 1.32 1 2 C0.328125 3.6640625 0.328125 3.6640625 -0.75 5.625 C-2.2829668 8.51649255 -3.54506284 11.34798905 -4.625 14.4375 C-6 18 -6 18 -8 19 C-5.61708443 4.8146438 -5.61708443 4.8146438 0 0 Z " fill="#121212" transform="translate(21,21)"/>
<path d="M0 0 C-1.36486983 3.1528493 -2.83759259 4.97025502 -5.5 7.125 C-7.4295694 8.70299531 -9.23458294 10.23458294 -11 12 C-11 8 -11 8 -9.1015625 5.859375 C-8.28429687 5.16328125 -7.46703125 4.4671875 -6.625 3.75 C-5.40683594 2.69039062 -5.40683594 2.69039062 -4.1640625 1.609375 C-2 0 -2 0 0 0 Z " fill="#080808" transform="translate(33,10)"/>
<path d="M0 0 C-1.4163067 2.8326134 -3.14497293 3.01707833 -6.0625 4.125 C-6.98160156 4.47820313 -7.90070312 4.83140625 -8.84765625 5.1953125 C-9.55792969 5.46085938 -10.26820312 5.72640625 -11 6 C-10.74609375 4.11328125 -10.74609375 4.11328125 -10 2 C-8.22265625 0.91796875 -8.22265625 0.91796875 -6.0625 0.1875 C-5.35222656 -0.06644531 -4.64195313 -0.32039062 -3.91015625 -0.58203125 C-2 -1 -2 -1 0 0 Z " fill="#171717" transform="translate(44,6)"/>
<path d="M0 0 C0.66 0 1.32 0 2 0 C2.66 3.3 3.32 6.6 4 10 C3.34 10 2.68 10 2 10 C1.34 6.7 0.68 3.4 0 0 Z " fill="#141414" transform="translate(88,31)"/>
</svg>
